# xmcd
#
# Track frame offsets:
#	150
#	12181
#	23615
#	39119
#	50001
#	63419
#	83482
#	93847
#	103389
#	116585
#	131594
#	146145
#	156336
#	169235
#	192543
#	203289
#	220773
#	233616
#	242984
#	257337
#
# Disc length: 3706 seconds
#
# Revision: 0
# Processed by: cddbd v1.5.2PL0 Copyright (c) Steve Scherf et al.
# Submitted via: EasyCDDAExtractor 16.0.6.1
#
DISCID=090e7814
DTITLE=J.J. Cale - C-085 The Very Best Of J.J.Cale
DYEAR=1900
DGENRE=Country
TTITLE0=01. Call Me The Breeze
TTITLE1=02. Crazy Mama
TTITLE2=03. Magnolia
TTITLE3=04. After Midnight
TTITLE4=05. Lies
TTITLE5=06. Midnight In Memphis
TTITLE6=07. Cajun Moon
TTITLE7=08. Rock And Roll Records
TTITLE8=09. Cocaine
TTITLE9=10. Hey Baby
TTITLE10=11. I'll Make Love To You Anytime
TTITLE11=12. Don't Cry Sister
TTITLE12=13. Thirteen Days
TTITLE13=14. Sensitive Kind
TTITLE14=15. Carry On
TTITLE15=16. Mama Don't
TTITLE16=17. City Girls
TTITLE17=18. Devil In Disguise
TTITLE18=19. Don't Wait
TTITLE19=20. Money Talks
EXTD=
EXTT0=
EXTT1=
EXTT2=
EXTT3=
EXTT4=
EXTT5=
EXTT6=
EXTT7=
EXTT8=
EXTT9=
EXTT10=
EXTT11=
EXTT12=
EXTT13=
EXTT14=
EXTT15=
EXTT16=
EXTT17=
EXTT18=
EXTT19=
PLAYORDER=
